<mxfile host="Electron" agent="Mozilla/5.0 (Windows NT 10.0; Win64; x64) AppleWebKit/537.36 (KHTML, like Gecko) draw.io/28.0.6 Chrome/138.0.7204.100 Electron/37.2.3 Safari/537.36" version="28.0.6">
  <diagram name="Página-1" id="JjM72OkgwJMH5U0479FH">
    <mxGraphModel dx="1188" dy="701" grid="0" gridSize="10" guides="1" tooltips="1" connect="1" arrows="1" fold="1" page="1" pageScale="1" pageWidth="827" pageHeight="1169" math="0" shadow="0">
      <root>
        <mxCell id="0" />
        <mxCell id="1" parent="0" />
        <mxCell id="_D6N30qZEQgWvShnuil0-1" value="Toma de video clases, parte 1" style="shape=table;startSize=28;container=1;collapsible=0;childLayout=tableLayout;fixedRows=1;rowLines=0;fontStyle=0;strokeColor=default;fontSize=15;fontFamily=Times New Roman;" vertex="1" parent="1">
          <mxGeometry x="34" y="30" width="356.16502463054167" height="111.96551724137929" as="geometry" />
        </mxCell>
        <mxCell id="_D6N30qZEQgWvShnuil0-2" value="" style="shape=tableRow;horizontal=0;startSize=0;swimlaneHead=0;swimlaneBody=0;top=0;left=0;bottom=0;right=0;collapsible=0;dropTarget=0;fillColor=none;points=[[0,0.5],[1,0.5]];portConstraint=eastwest;strokeColor=inherit;fontSize=16;fontFamily=Times New Roman;" vertex="1" parent="_D6N30qZEQgWvShnuil0-1">
          <mxGeometry y="28" width="356.16502463054167" height="20" as="geometry" />
        </mxCell>
        <mxCell id="_D6N30qZEQgWvShnuil0-3" value="&lt;font style=&quot;font-size: 14px;&quot;&gt;Detalle&lt;/font&gt;&lt;div&gt;&lt;br&gt;&lt;/div&gt;" style="shape=partialRectangle;html=1;whiteSpace=wrap;connectable=0;fillColor=none;top=0;left=0;bottom=0;right=0;overflow=hidden;pointerEvents=1;strokeColor=inherit;fontSize=16;fontFamily=Times New Roman;" vertex="1" parent="_D6N30qZEQgWvShnuil0-2">
          <mxGeometry width="76" height="20" as="geometry">
            <mxRectangle width="76" height="20" as="alternateBounds" />
          </mxGeometry>
        </mxCell>
        <mxCell id="_D6N30qZEQgWvShnuil0-4" value="&lt;font style=&quot;font-size: 14px;&quot;&gt;Ciclo 01-2025&lt;/font&gt;" style="shape=partialRectangle;html=1;whiteSpace=wrap;connectable=0;fillColor=none;top=0;left=0;bottom=0;right=0;align=left;spacingLeft=6;overflow=hidden;strokeColor=inherit;fontSize=16;fontFamily=Times New Roman;" vertex="1" parent="_D6N30qZEQgWvShnuil0-2">
          <mxGeometry x="76" width="280" height="20" as="geometry">
            <mxRectangle width="280" height="20" as="alternateBounds" />
          </mxGeometry>
        </mxCell>
        <mxCell id="_D6N30qZEQgWvShnuil0-5" value="" style="shape=tableRow;horizontal=0;startSize=0;swimlaneHead=0;swimlaneBody=0;top=0;left=0;bottom=0;right=0;collapsible=0;dropTarget=0;fillColor=none;points=[[0,0.5],[1,0.5]];portConstraint=eastwest;strokeColor=inherit;fontSize=16;fontFamily=Times New Roman;" vertex="1" parent="_D6N30qZEQgWvShnuil0-1">
          <mxGeometry y="48" width="356.16502463054167" height="42" as="geometry" />
        </mxCell>
        <mxCell id="_D6N30qZEQgWvShnuil0-6" value="&lt;font style=&quot;font-size: 14px;&quot;&gt;Encargado&lt;/font&gt;" style="shape=partialRectangle;html=1;whiteSpace=wrap;connectable=0;fillColor=none;top=0;left=0;bottom=0;right=0;overflow=hidden;strokeColor=inherit;fontSize=16;fontFamily=Times New Roman;" vertex="1" parent="_D6N30qZEQgWvShnuil0-5">
          <mxGeometry width="76" height="42" as="geometry">
            <mxRectangle width="76" height="42" as="alternateBounds" />
          </mxGeometry>
        </mxCell>
        <mxCell id="_D6N30qZEQgWvShnuil0-7" value="&lt;span style=&quot;font-size: 14px;&quot;&gt;Fátima Hernández, David Segura, Luis Lemus y Tatiana Herrera&lt;/span&gt;" style="shape=partialRectangle;html=1;whiteSpace=wrap;connectable=0;fillColor=none;top=0;left=0;bottom=0;right=0;align=left;spacingLeft=6;overflow=hidden;strokeColor=inherit;fontSize=16;fontFamily=Times New Roman;" vertex="1" parent="_D6N30qZEQgWvShnuil0-5">
          <mxGeometry x="76" width="280" height="42" as="geometry">
            <mxRectangle width="280" height="42" as="alternateBounds" />
          </mxGeometry>
        </mxCell>
        <mxCell id="_D6N30qZEQgWvShnuil0-8" value="" style="shape=tableRow;horizontal=0;startSize=0;swimlaneHead=0;swimlaneBody=0;top=0;left=0;bottom=0;right=0;collapsible=0;dropTarget=0;fillColor=none;points=[[0,0.5],[1,0.5]];portConstraint=eastwest;strokeColor=inherit;fontSize=16;fontFamily=Times New Roman;" vertex="1" parent="_D6N30qZEQgWvShnuil0-1">
          <mxGeometry y="90" width="356.16502463054167" height="20" as="geometry" />
        </mxCell>
        <mxCell id="_D6N30qZEQgWvShnuil0-9" value="" style="shape=partialRectangle;html=1;whiteSpace=wrap;connectable=0;fillColor=none;top=0;left=0;bottom=0;right=0;overflow=hidden;strokeColor=inherit;fontSize=16;fontFamily=Times New Roman;" vertex="1" parent="_D6N30qZEQgWvShnuil0-8">
          <mxGeometry width="76" height="20" as="geometry">
            <mxRectangle width="76" height="20" as="alternateBounds" />
          </mxGeometry>
        </mxCell>
        <mxCell id="_D6N30qZEQgWvShnuil0-10" value="" style="shape=partialRectangle;html=1;whiteSpace=wrap;connectable=0;fillColor=none;top=0;left=0;bottom=0;right=0;align=left;spacingLeft=6;overflow=hidden;strokeColor=inherit;fontSize=16;fontFamily=Times New Roman;" vertex="1" parent="_D6N30qZEQgWvShnuil0-8">
          <mxGeometry x="76" width="280" height="20" as="geometry">
            <mxRectangle width="280" height="20" as="alternateBounds" />
          </mxGeometry>
        </mxCell>
        <mxCell id="_D6N30qZEQgWvShnuil0-14" value="" style="edgeStyle=orthogonalEdgeStyle;rounded=0;orthogonalLoop=1;jettySize=auto;html=1;" edge="1" parent="1" source="_D6N30qZEQgWvShnuil0-12" target="_D6N30qZEQgWvShnuil0-13">
          <mxGeometry relative="1" as="geometry" />
        </mxCell>
        <mxCell id="_D6N30qZEQgWvShnuil0-12" value="&lt;font&gt;Preparación y grabación&lt;/font&gt;" style="rounded=0;whiteSpace=wrap;html=1;fontFamily=Times New Roman;fontSize=13;fillColor=#dae8fc;strokeColor=#6c8ebf;" vertex="1" parent="1">
          <mxGeometry x="354" y="176" width="120" height="45" as="geometry" />
        </mxCell>
        <mxCell id="_D6N30qZEQgWvShnuil0-16" value="" style="edgeStyle=orthogonalEdgeStyle;rounded=0;orthogonalLoop=1;jettySize=auto;html=1;" edge="1" parent="1" source="_D6N30qZEQgWvShnuil0-13" target="_D6N30qZEQgWvShnuil0-15">
          <mxGeometry relative="1" as="geometry" />
        </mxCell>
        <mxCell id="_D6N30qZEQgWvShnuil0-13" value="El área de diseño verifica la agenda de grabaciones y prepara el escenario (aire acondicionado, baterias de lámparas, etc)" style="whiteSpace=wrap;html=1;fontSize=13;fontFamily=Times New Roman;rounded=0;" vertex="1" parent="1">
          <mxGeometry x="319" y="248" width="190" height="77" as="geometry" />
        </mxCell>
        <mxCell id="_D6N30qZEQgWvShnuil0-18" value="" style="edgeStyle=orthogonalEdgeStyle;rounded=0;orthogonalLoop=1;jettySize=auto;html=1;" edge="1" parent="1" source="_D6N30qZEQgWvShnuil0-15" target="_D6N30qZEQgWvShnuil0-17">
          <mxGeometry relative="1" as="geometry" />
        </mxCell>
        <mxCell id="_D6N30qZEQgWvShnuil0-15" value="Revisar que la memoria SD tenga suficiente espacio" style="whiteSpace=wrap;html=1;fontSize=13;fontFamily=Times New Roman;rounded=0;" vertex="1" parent="1">
          <mxGeometry x="354" y="353" width="120" height="60" as="geometry" />
        </mxCell>
        <mxCell id="_D6N30qZEQgWvShnuil0-20" value="" style="edgeStyle=orthogonalEdgeStyle;rounded=0;orthogonalLoop=1;jettySize=auto;html=1;" edge="1" parent="1" source="_D6N30qZEQgWvShnuil0-17" target="_D6N30qZEQgWvShnuil0-19">
          <mxGeometry relative="1" as="geometry" />
        </mxCell>
        <mxCell id="_D6N30qZEQgWvShnuil0-17" value="El área de diseño recibe al docente y le brinda asistencia con materiales" style="whiteSpace=wrap;html=1;fontSize=13;fontFamily=Times New Roman;rounded=0;" vertex="1" parent="1">
          <mxGeometry x="348" y="441" width="132" height="63" as="geometry" />
        </mxCell>
        <mxCell id="_D6N30qZEQgWvShnuil0-22" value="" style="edgeStyle=orthogonalEdgeStyle;rounded=0;orthogonalLoop=1;jettySize=auto;html=1;" edge="1" parent="1" source="_D6N30qZEQgWvShnuil0-19" target="_D6N30qZEQgWvShnuil0-21">
          <mxGeometry relative="1" as="geometry" />
        </mxCell>
        <mxCell id="_D6N30qZEQgWvShnuil0-19" value="El área de diseño da indicaciones previas al docente" style="whiteSpace=wrap;html=1;fontSize=13;fontFamily=Times New Roman;rounded=0;" vertex="1" parent="1">
          <mxGeometry x="354" y="532" width="120" height="60" as="geometry" />
        </mxCell>
        <mxCell id="_D6N30qZEQgWvShnuil0-24" value="" style="edgeStyle=orthogonalEdgeStyle;rounded=0;orthogonalLoop=1;jettySize=auto;html=1;" edge="1" parent="1" source="_D6N30qZEQgWvShnuil0-21" target="_D6N30qZEQgWvShnuil0-23">
          <mxGeometry relative="1" as="geometry" />
        </mxCell>
        <mxCell id="_D6N30qZEQgWvShnuil0-21" value="El área de diseño coloca el micrófono y verifica que los equipos estén encendidos" style="whiteSpace=wrap;html=1;fontSize=13;fontFamily=Times New Roman;rounded=0;" vertex="1" parent="1">
          <mxGeometry x="345.5" y="620" width="137" height="68" as="geometry" />
        </mxCell>
        <mxCell id="_D6N30qZEQgWvShnuil0-26" value="" style="edgeStyle=orthogonalEdgeStyle;rounded=0;orthogonalLoop=1;jettySize=auto;html=1;" edge="1" parent="1" source="_D6N30qZEQgWvShnuil0-23" target="_D6N30qZEQgWvShnuil0-25">
          <mxGeometry relative="1" as="geometry" />
        </mxCell>
        <mxCell id="_D6N30qZEQgWvShnuil0-23" value="El área de diseño inicia la grabación del video" style="whiteSpace=wrap;html=1;fontSize=13;fontFamily=Times New Roman;rounded=0;" vertex="1" parent="1">
          <mxGeometry x="354" y="716" width="120" height="60" as="geometry" />
        </mxCell>
        <mxCell id="_D6N30qZEQgWvShnuil0-30" value="" style="edgeStyle=orthogonalEdgeStyle;rounded=0;orthogonalLoop=1;jettySize=auto;html=1;" edge="1" parent="1" source="_D6N30qZEQgWvShnuil0-25" target="_D6N30qZEQgWvShnuil0-29">
          <mxGeometry relative="1" as="geometry" />
        </mxCell>
        <mxCell id="_D6N30qZEQgWvShnuil0-25" value="El docente llena la hoja de solicitud" style="whiteSpace=wrap;html=1;fontSize=13;fontFamily=Times New Roman;rounded=0;" vertex="1" parent="1">
          <mxGeometry x="354" y="804" width="120" height="44" as="geometry" />
        </mxCell>
        <mxCell id="_D6N30qZEQgWvShnuil0-29" value="El diseñador completa la segunda parte" style="whiteSpace=wrap;html=1;fontSize=13;fontFamily=Times New Roman;rounded=0;" vertex="1" parent="1">
          <mxGeometry x="354" y="876" width="120" height="60" as="geometry" />
        </mxCell>
      </root>
    </mxGraphModel>
  </diagram>
</mxfile>
